<svg width="156" height="42" viewBox="0 0 156 42" fill="none" xmlns="http://www.w3.org/2000/svg">
<g clip-path="url(#clip0_1281_1616)">
<path d="M11.527 0.397949H0V2.48736H4.50165V14.7141H0V16.8264H11.527V14.7141H7.02536V2.48736H11.527V0.397949Z" fill="black"/>
<path d="M18.5425 16.8264V5.04614C18.5425 4.31925 18.5425 3.59236 18.4962 2.83939L23.8314 16.8264H27.4764V0.397949H25.118V11.8522C25.118 12.6019 25.118 13.4005 25.1412 14.1535L19.9251 0.397949H16.1875V16.8264H18.5425Z" fill="black"/>
<path d="M39.156 16.8264V2.48736H44.4911V0.397949H31.2739V2.48736H36.6322V16.8264H39.156Z" fill="black"/>
<path d="M60.0564 16.8264V14.7141H51.2913V9.45965H59.342V7.34743H51.2913V2.48736H59.7455V0.397949H48.7676V16.8264H60.0564Z" fill="black"/>
<path d="M66.9065 16.8264V9.8345H70.0487C72.3575 9.8345 73.2637 10.2615 73.2637 12.9572V16.8296H75.7874V12.4846C75.7874 10.0007 74.7158 8.98701 73.0024 8.70668C74.5504 8.26011 76.1215 7.20074 76.1215 4.71692C76.1215 1.37909 74.0013 0.397949 70.8591 0.397949H64.3828V16.8264H66.9065ZM66.9065 2.48736H70.2869C72.3839 2.48736 73.525 2.85895 73.525 5.09178C73.525 7.15185 72.3806 7.71902 70.2869 7.71902H66.9065V2.48736Z" fill="black"/>
<path d="M86.5206 17.2042C90.1193 17.2042 92.0675 15.519 92.4743 11.2913H89.8547C89.4512 14.2999 88.5681 15.118 86.4743 15.118C83.9506 15.118 82.5449 13.485 82.5449 8.54668C82.5449 3.6312 83.8779 2.11548 86.4743 2.11548C88.4391 2.11548 89.4181 3.0021 89.7356 5.87055H92.4512C92.1502 1.8482 90.1325 0 86.6397 0C82.3762 0 79.9253 2.50012 79.9253 8.54342C79.9253 14.7497 82.2571 17.2042 86.5206 17.2042Z" fill="black"/>
<path d="M99.0623 16.8264V9.3423H105.277V16.8296H107.801V0.397949H105.277V7.22682H99.0623V0.397949H96.5386V16.8264H99.0623Z" fill="black"/>
<path d="M125.034 16.8264L119.818 0.397949H116.603L111.437 16.8264H113.96L115.366 12.0869H120.962L122.345 16.8264H125.034ZM117.605 4.57676C117.82 3.82705 118.009 3.16861 118.177 2.46454C118.343 3.16861 118.512 3.80098 118.75 4.57676L120.344 9.99749H115.984L117.605 4.57676Z" fill="black"/>
<path d="M140.05 0.397949H128.523V2.48736H133.025V14.7141H128.523V16.8264H140.05V14.7141H135.549V2.48736H140.05V0.397949Z" fill="black"/>
<path d="M147.066 16.8264V5.04614C147.066 4.31925 147.066 3.59236 147.02 2.83939L152.355 16.8264H156V0.397949H153.641V11.8522C153.641 12.6019 153.641 13.4005 153.665 14.1535L148.449 0.397949H144.711V16.8264H147.066Z" fill="black"/>
<path d="M3.38015 41.6227V34.3017H11.5499V32.2123H3.38015V27.2837H11.9766V25.1943H0.856445V41.6227H3.38015Z" fill="black"/>
<path d="M21.8305 42.0006C25.7831 42.0006 28.0687 39.6863 28.0687 33.4115C28.0687 27.1368 25.8063 24.7964 21.8305 24.7964C17.8283 24.7964 15.5659 27.1335 15.5659 33.4083C15.5659 39.683 17.8515 42.0006 21.8305 42.0006ZM21.8305 39.9112C19.5681 39.9112 18.1855 38.4672 18.1855 33.4115C18.1855 28.3559 19.4954 26.9119 21.8305 26.9119C24.1161 26.9119 25.449 28.3559 25.449 33.4115C25.449 38.4672 24.0665 39.9112 21.8305 39.9112Z" fill="black"/>
<path d="M37.8956 42.0009C41.825 42.0009 43.8493 39.6768 43.8493 35.687V25.1943H41.3256V35.3806C41.3256 38.2914 40.2076 39.9114 37.8956 39.9114C35.5604 39.9114 34.4656 38.2914 34.4656 35.3806V25.1943H31.9419V35.6837C31.9419 39.6768 33.9893 42.0009 37.8956 42.0009Z" fill="black"/>
<path d="M50.8369 41.6228V29.8458C50.8369 29.1189 50.8369 28.392 50.7906 27.6391L56.1258 41.626H59.7708V25.1976H57.4125V36.6519C57.4125 37.4016 57.4125 38.2002 57.4356 38.9532L52.2195 25.2009H48.4819V41.6293L50.8369 41.6228Z" fill="black"/>
<path d="M69.4326 41.6227C74.361 41.6227 76.9111 39.4258 76.9111 33.4542C76.9111 26.7068 73.8615 25.1943 69.0986 25.1943H65.146V41.6227H69.4326ZM67.6697 27.2837H69.1945C72.7204 27.2837 74.2915 28.4702 74.2915 33.4085C74.2915 38.7478 72.34 39.5105 69.2673 39.5105H67.673V27.2837H67.6697Z" fill="black"/>
<path d="M93.5658 41.6227L88.3497 25.1943H85.1347L79.9683 41.6227H82.492L83.8977 36.8833H89.4941L90.8767 41.6227H93.5658ZM86.1336 29.3731C86.3486 28.6234 86.5371 27.965 86.7058 27.2609C86.8712 27.965 87.0399 28.5974 87.278 29.3731L88.8723 34.7939H84.5129L86.1336 29.3731Z" fill="black"/>
<path d="M103.254 41.6227V27.2837H108.589V25.1943H95.3716V27.2837H100.73V41.6227H103.254Z" fill="black"/>
<path d="M123.985 25.1943H112.458V27.2837H116.96V39.5105H112.458V41.6227H123.985V39.5105H119.484V27.2837H123.985V25.1943Z" fill="black"/>
<path d="M134.289 42.0006C138.242 42.0006 140.527 39.6863 140.527 33.4115C140.527 27.1368 138.265 24.7964 134.289 24.7964C130.287 24.7964 128.024 27.1335 128.024 33.4083C128.024 39.683 130.313 42.0006 134.289 42.0006ZM134.289 39.9112C132.027 39.9112 130.644 38.4672 130.644 33.4115C130.644 28.3559 131.954 26.9119 134.289 26.9119C136.575 26.9119 137.908 28.3559 137.908 33.4115C137.908 38.4672 136.528 39.9112 134.289 39.9112Z" fill="black"/>
<path d="M147.066 41.6228V29.8458C147.066 29.1189 147.066 28.392 147.02 27.6391L152.355 41.626H156V25.1976H153.641V36.6519C153.641 37.4016 153.641 38.2002 153.665 38.9532L148.449 25.2009H144.711V41.6293L147.066 41.6228Z" fill="black"/>
</g>
<defs>
<clipPath id="clip0_1281_1616">
<rect width="156" height="42" fill="white"/>
</clipPath>
</defs>
</svg>
